PathFileType	4	(X/Y/Z)	Patient4_TMGait_0pt3_02_left_09.trc.trc
DataRate	CameraRate	NumFrames	NumMarkers	Units	OrigDataRate	OrigDataStartFrame	OrigNumFrames
51.094890510949	51.094890510949	4	33	mm	51.094890510949	106	       141
Frame#	Time	Sacral			L.Shoulder			Chest			R.Shoulder			Neck			R.ASIS			L.ASIS			R.Thigh.Superior			R.Thigh.Lateral			R.Thigh.Inferior			R.Patella			L.Thigh.Superior			L.Thigh.Lateral			L.Thigh.Inferior			L.Patella			L.Shank.Superior			L.Shank.Lateral			L.Shank.Inferior			R.Shank.Superior			R.Shank.Lateral			R.Shank.Inferior			R.Heel			R.Midfoot.Superior			R.Midfoot.Lateral			R.Toe			L.Heel			L.Midfoot.Lateral			L.Midfoot.Superior			L.Toe			L.Elbow			L.Wrist			R.Elbow			R.Wrist			
		X1	Y1	Z1	X2	Y2	Z2	X3	Y3	Z3	X4	Y4	Z4	X5	Y5	Z5	X6	Y6	Z6	X7	Y7	Z7	X8	Y8	Z8	X9	Y9	Z9	X10	Y10	Z10	X11	Y11	Z11	X12	Y12	Z12	X13	Y13	Z13	X14	Y14	Z14	X15	Y15	Z15	X16	Y16	Z16	X17	Y17	Z17	X18	Y18	Z18	X19	Y19	Z19	X20	Y20	Z20	X21	Y21	Z21	X22	Y22	Z22	X23	Y23	Z23	X24	Y24	Z24	X25	Y25	Z25	X26	Y26	Z26	X27	Y27	Z27	X28	Y28	Z28	X29	Y29	Z29	X30	Y30	Z30	X31	Y31	Z31	X32	Y32	Z32	X33	Y33	Z33	

106	19.515000000000	754.927585425907	971.479041435524	563.623657719223	943.418079146184	1410.338508913142	408.864794213374	1024.107217073111	1340.294491056773	581.520966919096	917.730476053731	1406.682859993972	744.442689749537	908.126018398282	1470.000423023324	566.112404524335	978.789771631965	921.040578471801	702.100079679781	986.139255724019	939.969172249856	428.572128211859	1045.636172347495	728.032984975023	658.257355428948	976.867458910667	604.239847874516	703.518953039137	1062.309477263946	566.282823908783	622.340065937489	1070.701621402197	466.138847651355	624.017266821383	1065.436537925354	744.844970421035	463.722861246365	1025.874325383538	622.379597287701	378.555704808564	1112.997438328715	552.134173467218	458.105693520705	1119.733677848843	460.314669115522	444.220792445232	1046.142277258296	404.444130966547	417.219886687446	904.983197879081	388.252430225077	354.029180228875	874.918244262178	255.537384767223	386.523497042139	1019.190033378015	378.858641908690	620.754135135360	923.400119239847	289.271693694032	674.319359635116	942.016610583638	193.684811932037	604.599128502883	777.584284595206	46.033081182558	564.500888985211	951.262866434753	97.151182146544	605.280372584632	859.279637189252	38.195759811367	640.413170724568	1067.829015171739	40.275850113745	635.004883274522	676.819817181753	199.355099518001	404.563479441025	736.806462160655	172.485863035452	317.830956974241	840.403744902536	170.005084117003	345.328958074233	915.316174436766	65.139507789442	292.101847977534	943.977599523051	1053.523189790777	301.131757166440	1010.144844421162	801.175573341793	314.147261259069	974.174959636382	1064.130728827651	871.290501718711	1199.828666437651	938.772817959941	902.273191795840	
107	19.534571428571	752.861146679383	968.708414850481	566.645828830233	937.304173793521	1407.559957872599	407.883342762787	1021.756766914207	1338.250074366938	578.975864365963	918.837437695000	1404.941562506794	744.030061386384	905.601407815144	1467.808956868918	565.610198473653	978.992003685785	919.182606486402	701.284427720183	982.262035068371	938.357816912173	427.636840915956	1045.741270757261	726.171832581888	656.844648289611	978.023682559057	602.108589545719	702.864416526588	1062.585832084884	564.510851090427	620.468741007983	1070.924854768771	463.823432552945	621.991435713405	1064.923695697844	746.238479222879	463.188225090702	1027.528744803062	622.741449068484	378.466299026216	1116.607684962408	554.769383826351	457.348800880489	1125.974144444579	463.808188645172	443.819345145136	1055.603599926877	405.282519601776	417.195402766774	915.502123301793	380.208246016761	355.031364582990	894.158030558971	245.710944457071	387.847891068573	1018.217233533081	376.716563502439	619.243523381581	921.677268230059	288.264119964452	673.671146687574	938.241327689043	192.542271149744	603.788703688167	771.799840887514	46.218740310613	564.497131072715	945.568720104080	97.029559990593	605.062243752420	853.495287935918	38.249639985545	640.377391837287	1062.040812028132	39.986189797521	635.015263283479	700.181027039647	176.829489761154	407.340475754915	761.318732118188	153.706514362442	320.268708860091	864.956680069645	158.208126788262	347.120592147783	946.398977852873	58.408645311719	293.738198812826	924.796766034604	1050.645278289153	301.573568158731	975.977766651612	794.510707723765	311.545351440767	985.775849122122	1065.704260367458	872.494158825049	1220.242752864110	956.752658114588	897.939868320961	
108	19.554142857143	750.746947688624	966.703046232599	569.527420144397	931.127771211685	1405.441491115318	406.739342040669	1019.486876245925	1336.740997772141	576.049287831484	920.298690344426	1403.822611197345	743.267723316762	903.255641295132	1466.219067506953	564.874704273954	979.003513260532	917.869467748136	700.288561311886	978.135924500770	937.222065793275	426.576434523673	1045.107955579314	724.558167811300	655.482321464757	978.023519383802	600.423722160951	702.155671739003	1061.644451001921	562.961107186010	618.680247699075	1069.735641801869	461.912443146593	620.052561280964	1063.882317561502	748.137570489341	462.189724640012	1028.363235246761	623.570238942469	377.993939579649	1119.717331664071	557.985100568434	455.812414345431	1131.702716155297	468.070703929329	442.822758388840	1064.801818370325	406.877512048830	416.885870789813	926.368223024910	372.467654170755	355.753836630961	914.126540143529	236.730087215624	389.268359310117	1016.095078593090	374.973113153950	617.817283539640	919.057024664529	287.403983767560	673.072849969641	933.980399925966	191.598442998941	603.089169286521	765.967343606888	46.310496310919	564.534290050692	939.756955312932	96.854402709727	604.792627275665	847.661866611808	38.266875053614	640.386132118360	1056.202384172996	39.808980732401	635.039154880695	725.157407577636	155.068443685793	410.253121871637	787.353815431318	135.571342472242	322.994248728290	890.591499011215	147.315593011204	349.278883990969	978.475081712266	52.921419449961	296.180490265212	905.278549886131	1049.196846449372	301.279167944604	943.144930348960	790.696057037932	308.751698224230	997.772128405584	1068.362969369622	873.260987953060	1239.708284129475	976.220299249719	892.611579459987	
109	19.573714285714	748.646764841439	965.548221812967	572.270089038727	924.941736923458	1404.058355610064	405.432974148762	1017.280033758046	1335.885173629840	572.779452610057	922.030240376483	1403.450151536451	742.127877259390	901.055436970871	1465.319391248652	563.882096238895	978.878286572255	917.156045434142	699.120509760298	973.819716315496	936.677732247857	425.405196338265	1043.745407337298	723.259028202633	654.070236732185	976.886124872049	599.249116566933	701.361861406395	1059.436468683887	561.680927249180	616.903057865367	1067.075278322615	460.460897121183	618.129987326082	1062.297591881898	750.518981802072	460.737296813173	1028.294049094850	624.879168036690	377.145105062808	1122.099263455992	561.689698639253	453.587753815470	1136.634683385516	473.016282018830	441.294342314807	1073.403435038421	409.246752103910	416.302446807477	937.367943289252	365.301151637677	356.100994397788	934.393962694692	228.964759566176	390.658930450360	1012.775185905696	373.681365461640	616.429275641944	915.534121525148	286.712126869568	672.505834766911	929.216008935063	190.869143100098	602.463143714371	760.082532212531	46.300162541567	564.609659213803	933.816461330787	96.616158964487	604.448222066343	841.775827116732	38.248735534753	640.436333204310	1050.312865107906	39.734259991626	635.068640715102	751.298308957863	134.760362540589	413.059900518676	814.501722765025	118.738838872543	325.796048864026	916.827799691143	137.797465133393	351.638378620698	1010.920652759705	49.104894477782	299.283858735434	885.800981103973	1049.202863735801	300.359956924064	912.016743799125	789.429742504729	305.855651456459	1010.074982005066	1072.223593411521	873.546676201202	1258.045258381990	997.036489287917	886.349870133878	
